# xmcd
#
# Track frame offsets:
#	150
#	13927
#	27580
#	39262
#	49080
#	60437
#	70585
#	80392
#	94815
#	108020
#	119825
#	130295
#	141370
#	152090
#	162460
#	174527
#	188222
#	201955
#	213342
#	223917
#	234772
#	244970
#	255370
#	267205
#	280570
#	296287
#	309262
#	319572
#	328415
#	337275
#
# Disc length: 4649 seconds
# Revision: 0
# Processed by: cddbd v1.5.2PL0 Copyright (c) Steve Scherf et al.
# Submitted via: dBpowerAMP V12.0
#
DISCID=bc12271e
DTITLE=Carroll Baker - The Early Years
DYEAR=1986
DGENRE=Country
TTITLE0=Antique Love
TTITLE1=He's Human Like Me
TTITLE2=Time Changes Everything
TTITLE3=Gone, Gone, Gone
TTITLE4=My Companion
TTITLE5=Tell Me Not To Go
TTITLE6=License
TTITLE7=Drowning In The Wine
TTITLE8=Lonely On Weekends
TTITLE9=The World I Know Is Now
TTITLE10=Love Now And Pay Later
TTITLE11=Roses And Heartaches
TTITLE12=Good Has Gone To Bad
TTITLE13=Just Once More
TTITLE14=Words Without Meaning
TTITLE15=Changing Of The Seasons
TTITLE16=How Can Anything So Right Turn Out So Wrong
TTITLE17=The Day Of Bride And Groom
TTITLE18=It's Late And I Have To Go
TTITLE19=Wichita
TTITLE20=I Feel A Leavin' Coming On
TTITLE21=Touch Me With Your Mind
TTITLE22=Happiness For Sale
TTITLE23=Mem'ries Of Home
TTITLE24=Just Out Of My Reach
TTITLE25=That's How My Heart Beats For You
TTITLE26=Bashfull Billy
TTITLE27=A Hit In Any Language
TTITLE28=Who Will Be The One To Loose
TTITLE29=We Both Can Blame The Wine
EXTD=
EXTT0=
EXTT1=
EXTT2=
EXTT3=
EXTT4=
EXTT5=
EXTT6=
EXTT7=
EXTT8=
EXTT9=
EXTT10=
EXTT11=
EXTT12=
EXTT13=
EXTT14=
EXTT15=
EXTT16=
EXTT17=
EXTT18=
EXTT19=
EXTT20=
EXTT21=
EXTT22=
EXTT23=
EXTT24=
EXTT25=
EXTT26=
EXTT27=
EXTT28=
EXTT29=
PLAYORDER=
